<?xml version="1.0" encoding="utf-8"?>
<!-- Generator: Adobe Illustrator 16.0.0, SVG Export Plug-In . SVG Version: 6.00 Build 0)  -->
<!DOCTYPE svg PUBLIC "-//W3C//DTD SVG 1.1//EN" "http://www.w3.org/Graphics/SVG/1.1/DTD/svg11.dtd">
<svg version="1.1" id="Ebene_1" xmlns="http://www.w3.org/2000/svg" xmlns:xlink="http://www.w3.org/1999/xlink" x="0px" y="0px"
	 width="512px" height="512px" viewBox="0 0 512 512" enable-background="new 0 0 512 512" xml:space="preserve">
<path id="picture-multi-icon" fill="#999999" d="M193.67,243.877c0-14.175,11.492-25.668,25.669-25.668
	c14.175,0,25.666,11.493,25.666,25.668c0,14.177-11.491,25.668-25.666,25.668C205.162,269.545,193.67,258.054,193.67,243.877z
	 M323.862,244.698l-42.55,60.455l-23.123-23.834l-65.246,74.135h203.948L323.862,244.698z M395.382,158.045V92.481H50v261.465
	h65.612v65.572H462V158.045H395.382z M83.629,320.317V126.112h278.123v31.935h-246.14v162.271L83.629,320.317L83.629,320.317z
	 M428.371,385.888h-279.13V191.675h279.13V385.888z"/>
</svg>
